<svg width="54" height="24" viewBox="0 0 54 24" fill="none" xmlns="http://www.w3.org/2000/svg">
<path d="M13.2396 13.9347V0H8.08245V14.3549C8.08245 16.7527 6.18294 18.705 3.84653 18.705H0.104492V23.5826H3.84653C9.02588 23.5794 13.2396 19.2547 13.2396 13.9347Z" fill="#21305B"/>
<path d="M40.9692 9.62014V23.5826H46.0909L46.0846 9.19981C46.0846 6.80742 47.9713 4.86063 50.2865 4.86063H54.0001V0H50.2896C45.1491 0 40.9692 4.31705 40.9692 9.62014Z" fill="#21305B"/>
<path d="M26.1822 24H28.3393C33.3472 24 37.4249 19.5503 37.4249 14.0776V0H32.1804V14.0776C32.1804 16.5701 30.4585 18.597 28.3393 18.597H26.1822C24.063 18.597 22.3411 16.5701 22.3411 14.0776V0H17.0967V14.0776C17.0967 19.5471 21.1743 24 26.1822 24Z" fill="#21305B"/>
<path d="M4.79537 0H0V4.8H4.79537V0Z" fill="#2777EB"/>
</svg>
